<?xml version="1.0" encoding="utf-8"?>
<!-- Generator: Adobe Illustrator 25.4.1, SVG Export Plug-In . SVG Version: 6.00 Build 0)  -->
<svg version="1.1" id="Layer_1" xmlns="http://www.w3.org/2000/svg" xmlns:xlink="http://www.w3.org/1999/xlink" x="0px" y="0px"
	 viewBox="0 0 100 100" style="enable-background:new 0 0 100 100;" xml:space="preserve">
<style type="text/css">
	.st0{fill:#FF0000;}
</style>
<path class="st0" d="M37.5,73.6c-0.9,0-1.9,0-2.8,0c0-0.5,0-0.9,0-1.4c-1.9,0-3.7,0-5.6,0c0-0.5,0-0.9,0-1.4c-1.4,0-2.8,0-4.2,0
	c0-0.5,0-0.9,0-1.4c-1.4,0-2.8,0-4.2,0c0-0.5,0-0.9,0-1.4c-1.4,0-2.8,0-4.2,0c0-0.5,0-0.9,0-1.4c-1.4,0-2.8,0-4.2,0
	c0-0.5,0-0.9,0-1.4c-1.9,0-3.7,0-5.6,0c0-0.5,0-0.9,0-1.4c-1.4,0-2.8,0-4.2,0c0-0.5,0-0.9,0-1.4c-0.5,0-0.9,0-1.4,0
	c0-0.5,0-0.9,0-1.4c-0.5,0-0.9,0-1.4,0c0-1.9,0-3.7,0-5.6c0.9,0,1.9,0,2.8,0c0-0.5,0-0.9,0-1.4c0.5,0,0.9,0,1.4,0c0-0.5,0-0.9,0-1.4
	c0.5,0,0.9,0,1.4,0c0-0.5,0-0.9,0-1.4c0.5,0,0.9,0,1.4,0c0-0.5,0-0.9,0-1.4c0.5,0,0.9,0,1.4,0c0-0.5,0-0.9,0-1.4c0.5,0,0.9,0,1.4,0
	c0-0.5,0-0.9,0-1.4c0.9,0,1.9,0,2.8,0c0-0.5,0-0.9,0-1.4c0.5,0,0.9,0,1.4,0c0-0.5,0-0.9,0-1.4c0.5,0,0.9,0,1.4,0c0-0.5,0-0.9,0-1.4
	c0.5,0,0.9,0,1.4,0c0-0.5,0-0.9,0-1.4c0.5,0,0.9,0,1.4,0c0-0.5,0-0.9,0-1.4c0.5,0,0.9,0,1.4,0c0-0.5,0-0.9,0-1.4c0.5,0,0.9,0,1.4,0
	c0-0.5,0-0.9,0-1.4c0.9,0,1.9,0,2.8,0c0-0.5,0-0.9,0-1.4c0.5,0,0.9,0,1.4,0c0-0.5,0-0.9,0-1.4c0.5,0,0.9,0,1.4,0c0-0.5,0-0.9,0-1.4
	c0.5,0,0.9,0,1.4,0c0-0.5,0-0.9,0-1.4c0.9,0,1.9,0,2.8,0c0-0.9,0-1.9,0-2.8c1.4,0,2.8,0,4.2,0c0,1.9,0,3.7,0,5.6c-0.5,0-0.9,0-1.4,0
	c0,1.4,0,2.8,0,4.2c-0.5,0-0.9,0-1.4,0c0,1.4,0,2.8,0,4.2c-0.5,0-0.9,0-1.4,0c0,0.5,0,0.9,0,1.4c0.5,0,0.9,0,1.4,0
	c0-0.5,0-0.9,0-1.4c1.4,0,2.8,0,4.2,0c0-0.5,0-0.9,0-1.4c1.9,0,3.7,0,5.6,0c0-0.5,0-0.9,0-1.4c1.9,0,3.7,0,5.6,0c0-0.5,0-0.9,0-1.4
	c1.9,0,3.7,0,5.6,0c0-0.5,0-0.9,0-1.4c1.4,0,2.8,0,4.2,0c0-0.5,0-0.9,0-1.4c1.9,0,3.7,0,5.6,0c0-0.5,0-0.9,0-1.4c1.9,0,3.7,0,5.6,0
	c0-0.5,0-0.9,0-1.4c1.9,0,3.7,0,5.6,0c0-0.5,0-0.9,0-1.4c1.9,0,3.7,0,5.6,0c0-0.5,0-0.9,0-1.4c1.4,0,2.8,0,4.2,0c0-0.5,0-0.9,0-1.4
	c1.9,0,3.7,0,5.6,0c0-0.5,0-0.9,0-1.4c1.9,0,3.7,0,5.6,0c0-0.5,0-0.9,0-1.4c1.4,0,2.8,0,4.2,0c0,0.5,0,0.9,0,1.4c0.5,0,0.9,0,1.4,0
	c0,4.2,0,8.3,0,12.5c-0.5,0-0.9,0-1.4,0c0,0.5,0,0.9,0,1.4c-2.3,0-4.6,0-6.9,0c0,0.5,0,0.9,0,1.4c-2.3,0-4.6,0-6.9,0
	c0,0.5,0,0.9,0,1.4c-1.9,0-3.7,0-5.6,0c0,0.5,0,0.9,0,1.4c-1.9,0-3.7,0-5.6,0c0,0.5,0,0.9,0,1.4c-1.9,0-3.7,0-5.6,0
	c0,0.5,0,0.9,0,1.4c-1.4,0-2.8,0-4.2,0c0,0.5,0,0.9,0,1.4c-1.9,0-3.7,0-5.6,0c0,0.5,0,0.9,0,1.4c-1.9,0-3.7,0-5.6,0
	c0,0.5,0,0.9,0,1.4c-1.9,0-3.7,0-5.6,0c0,0.5,0,0.9,0,1.4c-1.9,0-3.7,0-5.6,0c0,0.5,0,0.9,0,1.4c-1.4,0-2.8,0-4.2,0
	c0,0.5,0,0.9,0,1.4c-1.9,0-3.7,0-5.6,0c0,1.4,0,2.8,0,4.2c0.5,0,0.9,0,1.4,0c0,0.9,0,1.9,0,2.8c0.5,0,0.9,0,1.4,0c0,0.5,0,0.9,0,1.4
	c0.5,0,0.9,0,1.4,0c0,0.9,0,1.9,0,2.8c0.5,0,0.9,0,1.4,0C37.5,69.9,37.5,71.8,37.5,73.6z"/>
</svg>
